<svg xmlns="http://www.w3.org/2000/svg" viewBox="0 0 1200 630" width="1200" height="630">
  <defs>
    <radialGradient id="g1" cx="15%" cy="20%" r="38%">
      <stop offset="0%" stop-color="rgb(45,70,145)" stop-opacity="0.50"/>
      <stop offset="100%" stop-color="rgb(45,70,145)" stop-opacity="0"/>
    </radialGradient>
    <radialGradient id="g2" cx="85%" cy="22%" r="34%">
      <stop offset="0%" stop-color="rgb(115,65,170)" stop-opacity="0.42"/>
      <stop offset="100%" stop-color="rgb(115,65,170)" stop-opacity="0"/>
    </radialGradient>
    <radialGradient id="g3" cx="78%" cy="88%" r="34%">
      <stop offset="0%" stop-color="rgb(50,90,140)" stop-opacity="0.30"/>
      <stop offset="100%" stop-color="rgb(50,90,140)" stop-opacity="0"/>
    </radialGradient>
  </defs>

  <rect width="1200" height="630" fill="#0a0a0a"/>
  <rect width="1200" height="630" fill="url(#g1)"/>
  <rect width="1200" height="630" fill="url(#g2)"/>
  <rect width="1200" height="630" fill="url(#g3)"/>

  <g opacity="0.85">
    <line x1="100" y1="80" x2="195" y2="160" stroke="#a0a5c3" stroke-width="1" opacity="0.22"/>
    <line x1="195" y1="160" x2="80" y2="245" stroke="#a0a5c3" stroke-width="1" opacity="0.18"/>
    <line x1="195" y1="160" x2="290" y2="125" stroke="#a0a5c3" stroke-width="1" opacity="0.20"/>
    <line x1="290" y1="125" x2="340" y2="220" stroke="#a0a5c3" stroke-width="1" opacity="0.15"/>
    <circle cx="100" cy="80" r="1.8" fill="#c8c8d7"/>
    <circle cx="195" cy="160" r="2.2" fill="#c8c8d7"/>
    <circle cx="80" cy="245" r="1.6" fill="#c8c8d7"/>
    <circle cx="290" cy="125" r="2" fill="#c8c8d7"/>
    <circle cx="340" cy="220" r="1.6" fill="#c8c8d7"/>
  </g>

  <g opacity="0.85">
    <line x1="975" y1="475" x2="1070" y2="425" stroke="#a0a5c3" stroke-width="1" opacity="0.22"/>
    <line x1="1070" y1="425" x2="1140" y2="510" stroke="#a0a5c3" stroke-width="1" opacity="0.20"/>
    <line x1="1070" y1="425" x2="995" y2="550" stroke="#a0a5c3" stroke-width="1" opacity="0.16"/>
    <line x1="995" y1="550" x2="1140" y2="510" stroke="#a0a5c3" stroke-width="1" opacity="0.13"/>
    <circle cx="975" cy="475" r="1.7" fill="#c8c8d7"/>
    <circle cx="1070" cy="425" r="2.2" fill="#c8c8d7"/>
    <circle cx="1140" cy="510" r="1.6" fill="#c8c8d7"/>
    <circle cx="995" cy="550" r="2" fill="#c8c8d7"/>
  </g>

  <text x="600" y="320" font-family="-apple-system, system-ui, 'Segoe UI', Roboto, 'Helvetica Neue', Arial, sans-serif" font-size="100" font-weight="500" fill="#ffffff" text-anchor="middle" letter-spacing="-3">ThoughtLink</text>

  <text x="600" y="380" font-family="-apple-system, system-ui, 'Segoe UI', Roboto, 'Helvetica Neue', Arial, sans-serif" font-size="30" font-weight="400" fill="#9090a0" text-anchor="middle">Thinking in public.</text>
</svg>
